<?xml version="1.0" encoding="UTF-8"?>
<svg xmlns="http://www.w3.org/2000/svg" xmlns:xlink="http://www.w3.org/1999/xlink" width="50px" height="50px" viewBox="0 0 50 50" version="1.1">
<g id="surface1">
<path style=" stroke:none;fill-rule:nonzero;fill:rgb(0%,0%,0%);fill-opacity:1;" d="M 36.464844 4.21875 C 35.15625 4.433594 34.492188 4.882812 32.539062 6.894531 C 30.507812 8.984375 29.570312 10.3125 29.238281 11.640625 C 29.101562 12.207031 29.101562 13.085938 29.238281 13.457031 C 29.277344 13.574219 29.140625 13.671875 28.632812 13.886719 C 26.464844 14.785156 23.261719 15.273438 19.21875 15.273438 C 17.246094 15.273438 17.324219 15.292969 14.453125 14.6875 C 13.574219 14.492188 13.105469 14.453125 12.03125 14.453125 L 10.703125 14.453125 L 10.234375 13.515625 C 9.628906 12.304688 8.945312 11.171875 8.4375 10.585938 C 7.207031 9.101562 4.628906 7.695312 3.515625 7.871094 C 2.539062 8.027344 1.953125 8.710938 1.953125 9.6875 C 1.953125 10.507812 2.207031 10.9375 3.59375 12.324219 C 5.078125 13.828125 5.585938 14.6875 5.800781 16.132812 C 5.898438 16.679688 5.878906 16.757812 5.566406 17.675781 C 4.960938 19.492188 4.707031 20.996094 4.707031 22.871094 C 4.707031 25.234375 5.039062 26.796875 5.898438 28.574219 C 6.757812 30.3125 6.71875 30.996094 5.761719 32.265625 C 4.941406 33.339844 4.707031 34.101562 4.707031 35.664062 C 4.707031 37.226562 5.195312 39.980469 5.800781 41.816406 C 6.757812 44.746094 7.65625 45.644531 9.84375 45.839844 C 11.113281 45.976562 12.109375 45.546875 12.597656 44.667969 C 12.832031 44.296875 12.871094 44.101562 12.871094 43.613281 C 12.871094 42.792969 12.65625 42.402344 11.796875 41.5625 C 10.644531 40.429688 10.234375 39.296875 10.097656 36.816406 C 10.019531 35.292969 10.117188 35.078125 11.230469 34.179688 C 11.660156 33.828125 12.03125 33.554688 12.070312 33.554688 C 12.109375 33.554688 12.167969 33.789062 12.1875 34.0625 C 12.617188 37.695312 13.652344 40.898438 14.746094 41.992188 C 15.449219 42.714844 16.464844 43.066406 17.773438 43.066406 C 19.238281 43.066406 20.3125 42.128906 20.3125 40.839844 C 20.3125 40.078125 20.058594 39.609375 19.179688 38.710938 C 18.769531 38.28125 18.339844 37.773438 18.222656 37.558594 C 17.65625 36.445312 17.304688 33.28125 17.597656 31.894531 C 17.65625 31.640625 17.96875 30.546875 18.320312 29.492188 C 18.671875 28.4375 18.945312 27.5 18.945312 27.421875 C 18.945312 27.226562 18.964844 27.246094 19.882812 27.675781 C 21.015625 28.222656 21.777344 28.515625 22.773438 28.769531 C 23.789062 29.023438 25.273438 29.277344 25.976562 29.277344 C 26.328125 29.277344 26.484375 29.316406 26.523438 29.414062 C 26.542969 29.492188 26.484375 30.507812 26.386719 31.660156 C 26.113281 34.628906 26.054688 37.96875 26.25 39.394531 C 26.621094 42.089844 27.382812 43.984375 28.554688 45.058594 C 29.296875 45.761719 29.765625 45.898438 31.074219 45.839844 C 31.953125 45.800781 32.03125 45.78125 32.34375 45.527344 C 32.792969 45.15625 32.988281 44.804688 33.066406 44.238281 C 33.144531 43.613281 32.792969 42.871094 32.226562 42.480469 C 31.601562 42.050781 31.425781 41.289062 31.289062 38.515625 C 31.171875 36.40625 31.328125 34.785156 31.816406 32.832031 C 32.109375 31.640625 32.148438 31.601562 32.265625 32.226562 C 33.222656 36.992188 33.886719 39.375 34.609375 40.820312 C 35.351562 42.285156 36.230469 42.949219 37.460938 43.046875 C 38.222656 43.105469 38.769531 42.949219 39.199219 42.597656 C 39.707031 42.1875 39.921875 41.699219 39.863281 41.054688 C 39.824219 40.46875 39.53125 40.019531 38.945312 39.628906 C 38.300781 39.199219 38.125 38.4375 37.578125 33.164062 C 36.953125 27.363281 36.777344 24.21875 36.972656 22.753906 C 37.03125 22.324219 37.109375 21.152344 37.167969 20.15625 C 37.285156 17.65625 37.519531 16.816406 38.378906 15.898438 C 39.121094 15.097656 39.414062 15.078125 40.820312 15.664062 L 41.835938 16.09375 L 42.929688 16.09375 C 44.003906 16.09375 44.023438 16.09375 44.53125 15.800781 C 44.824219 15.644531 45.078125 15.46875 45.097656 15.429688 C 45.117188 15.371094 45.429688 15.175781 45.761719 14.980469 C 46.09375 14.785156 46.523438 14.453125 46.71875 14.238281 C 47.109375 13.808594 47.558594 12.929688 47.636719 12.402344 C 47.675781 12.207031 47.773438 11.875 47.871094 11.660156 C 48.183594 10.996094 48.085938 10.234375 47.636719 9.941406 C 47.519531 9.863281 47.089844 9.726562 46.71875 9.667969 C 46.347656 9.589844 45.46875 9.394531 44.804688 9.199219 C 43.359375 8.808594 43.164062 8.652344 42.421875 7.519531 C 41.289062 5.761719 40.644531 5.058594 39.570312 4.550781 C 38.632812 4.121094 37.636719 4.003906 36.464844 4.21875 Z M 38.886719 6.289062 C 39.414062 6.5625 39.84375 7.03125 40.644531 8.242188 C 41.464844 9.492188 42.03125 10.117188 42.539062 10.410156 C 42.871094 10.605469 45.429688 11.367188 45.722656 11.367188 C 45.800781 11.367188 45.839844 11.484375 45.839844 11.679688 C 45.839844 12.363281 45.429688 13.066406 44.824219 13.378906 C 44.609375 13.496094 44.257812 13.730469 44.003906 13.90625 C 43.535156 14.277344 42.988281 14.414062 42.460938 14.316406 C 42.304688 14.277344 41.777344 14.082031 41.308594 13.90625 C 39.628906 13.203125 38.691406 13.261719 37.539062 14.121094 C 36.679688 14.785156 35.839844 16.132812 35.546875 17.363281 C 35.46875 17.695312 35.371094 18.75 35.3125 19.765625 C 35.058594 24.648438 34.375 26.5625 32.265625 28.105469 C 31.289062 28.828125 30.976562 29.316406 30.390625 31.015625 C 29.453125 33.710938 29.140625 36.816406 29.472656 40.039062 C 29.707031 42.167969 30.019531 43.164062 30.644531 43.710938 L 30.976562 44.003906 L 30.488281 44.003906 C 30.058594 44.003906 29.980469 43.984375 29.6875 43.652344 C 28.789062 42.695312 28.183594 40.859375 27.96875 38.320312 C 27.851562 36.933594 27.910156 35.351562 28.203125 31.816406 C 28.320312 30.371094 28.4375 28.828125 28.457031 28.398438 L 28.496094 27.617188 L 28.027344 27.578125 C 27.773438 27.558594 27.03125 27.519531 26.386719 27.480469 C 24.003906 27.382812 22.636719 27.011719 19.902344 25.703125 C 17.871094 24.726562 17.421875 24.570312 16.210938 24.492188 C 15.253906 24.414062 15.332031 24.335938 15.234375 25.488281 C 15.136719 26.5625 14.921875 27.460938 14.550781 28.222656 C 13.925781 29.589844 13.105469 30.449219 10.976562 32.050781 C 9.472656 33.164062 8.90625 33.730469 8.535156 34.414062 C 8.28125 34.882812 8.261719 35 8.242188 35.996094 C 8.164062 38.046875 8.535156 40.078125 9.199219 41.347656 C 9.433594 41.777344 9.765625 42.226562 10.273438 42.734375 C 10.683594 43.144531 11.035156 43.535156 11.035156 43.613281 C 11.035156 43.886719 10.761719 44.023438 10.15625 44.023438 C 9.492188 44.023438 8.964844 43.867188 8.671875 43.59375 C 7.753906 42.753906 6.601562 38.457031 6.5625 35.78125 C 6.5625 34.472656 6.621094 34.277344 7.441406 33.144531 C 8.125 32.1875 8.359375 31.484375 8.339844 30.351562 L 8.339844 29.492188 L 7.714844 28.125 C 7.363281 27.382812 7.011719 26.542969 6.933594 26.269531 C 6.289062 23.945312 6.464844 20.527344 7.34375 18.242188 C 7.597656 17.597656 7.617188 17.421875 7.617188 16.5625 C 7.617188 15.507812 7.480469 14.941406 6.992188 13.886719 C 6.503906 12.832031 6.113281 12.285156 4.921875 11.113281 C 4.296875 10.488281 3.789062 9.941406 3.789062 9.882812 C 3.789062 9.628906 5.039062 10.195312 5.976562 10.878906 C 7.109375 11.71875 7.753906 12.65625 8.867188 15.039062 L 9.492188 16.367188 L 11.464844 16.367188 C 13.398438 16.367188 13.457031 16.367188 14.863281 16.699219 C 17.011719 17.207031 17.578125 17.265625 20.019531 17.1875 C 24.433594 17.070312 27.441406 16.542969 29.765625 15.46875 L 30.449219 15.15625 L 30.78125 15.390625 C 31.777344 16.054688 33.085938 15.996094 34.238281 15.234375 C 35.859375 14.140625 37.089844 11.582031 37.109375 9.296875 C 37.109375 8.535156 37.109375 8.4375 36.894531 8.242188 C 36.601562 7.929688 36.25 7.871094 35.839844 8.066406 C 35.429688 8.261719 35.371094 8.398438 35.253906 9.492188 C 35.078125 11.054688 34.492188 12.421875 33.671875 13.261719 C 32.773438 14.179688 31.992188 14.21875 31.269531 13.398438 C 31.035156 13.125 30.996094 13.007812 30.996094 12.597656 C 30.996094 11.582031 31.835938 10.332031 34.023438 8.125 C 35.703125 6.425781 36.015625 6.210938 36.972656 6.113281 C 37.636719 5.957031 38.4375 6.054688 38.886719 6.289062 Z M 17.226562 26.679688 C 17.226562 26.777344 16.933594 27.792969 16.5625 28.925781 C 16.191406 30.058594 15.839844 31.269531 15.78125 31.621094 C 15.625 32.539062 15.722656 35.371094 15.957031 36.425781 C 16.328125 38.085938 16.699219 38.828125 17.8125 39.980469 C 18.203125 40.390625 18.515625 40.78125 18.515625 40.859375 C 18.515625 41.113281 18.261719 41.230469 17.636719 41.210938 C 16.386719 41.191406 16.054688 40.957031 15.507812 39.804688 C 14.804688 38.28125 14.121094 35.253906 14.003906 33.125 L 13.945312 32.148438 L 14.589844 31.464844 C 15.761719 30.214844 16.484375 28.90625 16.894531 27.246094 C 17.050781 26.503906 17.226562 26.230469 17.226562 26.679688 Z M 35.703125 33.242188 C 35.898438 35.136719 36.132812 37.109375 36.210938 37.636719 C 36.464844 39.355469 36.894531 40.410156 37.558594 40.957031 C 37.753906 41.132812 37.851562 41.269531 37.792969 41.269531 C 37.441406 41.269531 36.972656 41.054688 36.757812 40.78125 C 36.386719 40.351562 35.78125 39.003906 35.46875 37.929688 C 35.234375 37.128906 34.511719 33.886719 33.828125 30.507812 L 33.613281 29.492188 L 34.414062 28.730469 L 35.234375 27.949219 L 35.292969 28.867188 C 35.3125 29.394531 35.507812 31.347656 35.703125 33.242188 Z M 35.703125 33.242188 "/>
</g>
</svg>
